# File produced by Open Asset Import Library (http://www.assimp.sf.net)
# (assimp v3.1.187496374)

mtllib LOW_POLY_SWALLOW.obj.mtl

# 164 vertex positions
v  -9.10608 -23.0804 12.027
v  -8.81318 -18.5782 7.9335
v  -5.81775 -22.7098 10.5844
v  0.534 -13.4516 0.387156
v  1.52747 -13.0364 1.04715
v  -0.99766 -8.95119 2.98621
v  -12.0631 8.62732 9.9943
v  -9.59664 10.9126 12.6999
v  -9.44075 19.371 7.06745
v  -11.8542 -12.3457 1.2168
v  -10.1643 -11.7346 0.639586
v  -10.6511 -9.19447 2.053
v  -1.12031 -11.2578 0.466674
v  -2.38474 -8.91671 1.85218
v  1.94105 -8.72563 0.386909
v  3.70219 -11.6553 0.583053
v  2.81687 -11.403 0.0818875
v  -3.14837 32.0433 1.53822
v  -3.62138 31.8606 2.86656
v  -2.81925 26.8872 3.85958
v  -11.3313 -6.75234 2.23698
v  -13.9516 -9.63318 0.514571
v  0.598988 -0.0857374 7.31079
v  0.158507 -4.7809 4.939
v  -1.68667 -1.60154 5.1795
v  -11.3277 -9.10031 4.12102
v  -13.3525 -7.1229 7.45372
v  -3.2811 10.2213 4.73588
v  -5.42696 34.2444 1.53937
v  -6.53527 32.5095 3.13061
v  -7.79463 32.9297 1.62299
v  -4.68422 33.5014 0.930654
v  -6.40098 26.9559 1.57695
v  0.357195 -12.669 28.251
v  0.200755 -19.0446 29.7603
v  3.12309 -18.1285 25.501
v  -9.08002 -5.74975 1.33763
v  -7.80445 -4.32766 0.22858
v  -8.00332 -2.95981 0.6098
v  -7.2709 -25.2617 14.3224
v  -11.4783 -24.0866 17.9669
v  -2.28936 -14.4114 5.94577
v  -2.75932 -21.7922 10.3708
v  -6.57504 -15.8505 6.15263
v  4.98128 -14.3335 19.5436
v  3.47413 -11.795 24.6337
v  -12.7322 -10.5579 0.145407
v  -9.56525 -4.60328 0.208945
v  -6.8244 27.2452 5.13568
v  -4.18176 24.7747 6.30488
v  -5.0537 -1.86012 3.71294
v  -5.83343 -8.19228 3.29116
v  -8.84402 -5.16567 3.00958
v  -15.1884 -11.6004 0.415747
v  -13.6753 -10.5815 0.940285
v  -4.30219 24.188 2.24196
v  -2.09034 18.1414 5.18971
v  3.83207 -6.30868 11.0922
v  0.893674 -9.70222 5.63742
v  -9.78078 14.9808 6.32527
v  -7.71461 -25.1118 35.2639
v  -4.5855 -23.5874 36.0839
v  -8.06482 -20.63 35.7577
v  -8.82185 -8.27228 0.843946
v  -9.79136 -1.57615 5.0574
v  0.0500754 -24.3911 19.523
v  0.902725 -24.1054 23.3596
v  -4.31005 -27.687 24.5823
v  -8.79583 -16.167 32.4206
v  -10.2655 -19.3832 33.288
v  -14.8255 -15.9147 13.9503
v  -16.1488 -9.85625 13.1544
v  -11.9747 -6.19693 24.5252
v  -14.3528 -5.45817 21.0022
v  -12.8589 -12.3578 27.3155
v  -1.59726 -24.3048 33.7712
v  -0.050986 -23.5458 27.6823
v  -1.2051 11.5791 11.8631
v  -1.14888 15.8441 8.19169
v  -9.21979 -26.9112 29.6887
v  -11.7628 -22.1179 28.4211
v  -9.27046 -25.8847 25.2176
v  -1.74077 -15.6263 31.1577
v  -11.7078 0.194886 19.8252
v  -2.71575 -4.67821 3.35533
v  -0.959979 -5.19932 24.6835
v  -3.48568 3.08525 19.4979
v  -4.03878 -6.32298 26.8289
v  -2.92553 -25.3551 15.2963
v  -5.70752 -26.9317 18.8755
v  -14.047 -16.6585 26.2722
v  -14.8953 -20.3321 23.3744
v  1.91478 -9.84497 1.08301
v  -14.504 -2.18707 11.1863
v  -9.19311 -12.6293 0.640898
v  -8.6944 3.98783 18.629
v  -6.22489 10.0406 15.0551
v  -8.53042 23.9138 3.04018
v  -8.44099 29.3841 3.2045
v  -15.1414 -20.26 20.8472
v  -13.627 -20.4692 15.5222
v  -11.8486 -24.3558 23.3958
v  -10.9425 4.79815 6.97874
v  1.48839 2.04056 9.12381
v  -15.8667 -13.7235 22.1431
v  -9.22443 -26.7182 33.007
v  -10.251 -22.8257 33.522
v  -0.0830173 -6.83682 2.35824
v  -1.9969 -6.59132 1.45358
v  -13.48 -14.9016 0.5193
v  -13.1637 -12.9567 0.259901
v  -12.234 -14.246 0.470848
v  -16.2443 -15.4808 18.4405
v  -2.25625 -20.949 35.3349
v  -1.49957 -18.6743 33.6017
v  -4.83419 -18.9114 35.5017
v  -9.72688 -8.07333 27.0463
v  -5.90342 -12.5024 30.6661
v  -7.36085 -3.41204 24.6729
v  -3.38522 -4.80465 0.400005
v  -2.92211 -3.6401 0.691457
v  3.17067 -21.3044 23.255
v  -5.31518 17.6627 10.0362
v  -2.31885 7.47003 15.9983
v  -13.0964 -2.22395 8.4313
v  3.34269 -13.5694 11.9839
v  -6.54401 8.51737 4.35354
v  -11.3613 -20.0712 10.8621
v  -12.9068 -14.1615 8.4838
v  -2.42755 -11.9612 0.445734
v  -1.50275 -13.7963 0.478098
v  -1.55685 -12.485 1.18457
v  1.73363 1.87063 16.7154
v  1.90768 4.71117 11.3779
v  -8.9592 -8.7303 2.98315
v  3.85374 -2.65144 15.7375
v  4.27995 -9.03172 21.0354
v  -6.98484 -27.6086 24.2026
v  0.860166 -10.4443 0.571125
v  3.75889 -20.311 19.9875
v  3.20852 -18.9293 16.0212
v  -8.89101 -26.3848 20.0295
v  -5.27571 -27.9519 34.3463
v  1.97688 -14.8592 0.481947
v  -9.84025 -13.9609 0.53814
v  5.01726 -11.9179 14.3185
v  -2.04004 -4.13989 0.235948
v  -2.93502 -28.2186 31.9614
v  -2.04082 -26.8498 29.8031
v  -0.0428486 -22.355 13.2534
v  -6.65705 -32.0143 28.7547
v  -6.26169 -29.5958 27.8731
v  -12.4164 4.95664 14.8999
v  -15.0251 -1.58487 14.9928
v  1.82992 -6.97733 24.1079
v  -7.63396 20.1552 8.26288
v  0.794216 -17.4978 9.47822
v  -7.22558 -29.4806 32.0682
v  -0.146838 0.729722 19.8873
v  -16.3512 -9.62133 18.2547
v  -5.70827 -31.7237 30.6822
v  -10.9903 -16.4031 29.8923
v  -5.2116 -33.5141 28.7649
v  -4.08675 -29.5443 28.2564

# 0 UV coordinates

# 324 vertex normals
vn -0.245593 -0.643324 -0.725133
vn -0.28987 -0.550706 0.782751
vn -0.819469 0.328043 0.469956
vn 0.418873 -0.378904 0.825214
vn -0.758482 -0.582549 0.292133
vn -0.536158 -0.551524 0.639027
vn 0.531143 0.265416 -0.804637
vn 0.909701 0.217368 0.353829
vn -0.396156 -0.178206 0.900724
vn 0.502995 0.351642 -0.789521
vn -0.884338 -0.293003 -0.363449
vn 0.658881 0.0607231 -0.749792
vn 0.202031 0.588775 0.782641
vn -0.209823 -0.0414214 -0.976861
vn 0.806948 0.11724 0.578869
vn 0.709551 -0.091563 0.69868
vn -0.513533 -0.788421 -0.338638
vn 0.13237 -0.515861 -0.846384
vn 0.956936 -0.0133253 0.289992
vn -0.204033 0.118883 -0.971719
vn -0.0764391 0.358558 0.930373
vn 0.141214 0.0484742 -0.988792
vn -0.462009 0.247703 0.851581
vn 0.724184 -0.069566 -0.686089
vn 0.863439 0.0578666 -0.501124
vn -0.927513 0.131018 -0.350076
vn -0.195336 -0.122475 0.973059
vn 0.295306 -0.221161 -0.929453
vn -0.856189 0.419246 -0.301949
vn 0.555352 -0.829326 -0.0616663
vn -0.547346 0.441818 0.710781
vn -0.817936 -0.246933 -0.51962
vn -0.734531 0.364612 0.572295
vn 0.961649 -0.157462 0.224581
vn 0.816116 0.3708 0.443239
vn -0.867349 -0.487133 -0.102012
vn 0.729388 0.140599 0.669497
vn -0.69701 0.443449 0.563498
vn -0.0629793 0.0740492 -0.995264
vn 0.318913 0.570813 0.756616
vn 0.283156 -0.939318 -0.193662
vn -0.863079 -0.174548 0.473948
vn 0.60584 0.409842 0.6819
vn 0.656601 0.679545 0.327253
vn 0.199357 -0.797162 -0.569904
vn -0.91073 0.0920033 -0.402624
vn 0.579511 -0.0871418 0.810292
vn -0.360972 0.578953 0.731104
vn -0.95466 0.0245192 -0.296685
vn -0.778219 -0.595994 -0.197905
vn -0.795945 -0.602356 0.0603276
vn -0.857601 0.138991 -0.495179
vn 0.83649 0.108161 -0.537202
vn -0.867363 0.220457 0.446184
vn 0.260909 -0.124091 -0.957355
vn -0.926682 -0.236091 -0.292442
vn -0.699168 -0.271877 0.661246
vn 0.373974 0.708026 -0.599035
vn 0.795352 0.306533 0.522928
vn 0.033872 -0.137536 -0.989918
vn -0.932229 -0.239295 -0.271454
vn 0.655375 -0.461163 -0.598175
vn 0.414572 0.460242 0.785053
vn -0.187371 0.519568 0.833632
vn -0.637659 0.202793 0.743146
vn -0.607498 0.411666 0.679321
vn -0.581416 0.0277108 0.813134
vn 0.836681 -0.30783 0.452997
vn -0.204975 -0.411585 -0.888022
vn -0.0202645 0.630253 0.776125
vn 0.587188 -0.776083 0.230011
vn -0.750558 -0.655482 -0.0836945
vn 0.502504 0.541817 0.673739
vn -0.720028 0.171811 -0.67234
vn 0.902267 -0.111955 -0.416389
vn 0.19081 -0.147619 -0.970464
vn -0.56026 -0.43115 -0.707261
vn -0.975849 -0.141307 0.166588
vn -0.719651 -0.352103 0.598437
vn 0.0253548 0.613518 0.789274
vn 0.393151 0.451798 0.800819
vn 0.8914 0.387391 0.235233
vn -0.768005 -0.580078 0.271437
vn 0.152506 -0.358842 -0.920855
vn 0.991676 0.114746 0.05841
vn -0.722361 0.162041 0.672263
vn -0.010787 -0.991637 -0.128606
vn 0.746001 -0.128647 0.653401
vn 0.71981 -0.618423 -0.315319
vn -0.624977 -0.776416 -0.0811291
vn 0.504427 -0.387065 0.771838
vn 0.112524 0.0485088 -0.992464
vn 0.0759858 0.0399554 -0.996308
vn 0.868615 0.349982 0.350742
vn 0.933716 -0.139183 0.329851
vn -0.87571 0.175566 -0.449788
vn 0.91429 -0.00367182 0.405044
vn 0.993568 0.0926984 0.0650298
vn -0.049906 -0.052711 0.997362
vn 0.845147 -0.120914 -0.520679
vn 0.0785637 0.0726575 -0.994258
vn 0.0125495 0.12421 0.992177
vn 0.923276 0.152594 -0.352528
vn -0.112009 -0.338273 -0.934358
vn 0.341895 0.392023 -0.854064
vn 0.745307 0.651674 0.140852
vn 0.915382 -0.377529 0.139813
vn 0.404386 -0.747465 -0.527037
vn -0.314382 0.295393 -0.902168
vn -0.639601 -0.750764 -0.165119
vn 0.983197 0.141175 -0.115731
vn 0.888842 -0.424373 0.172824
vn -0.878859 -0.123109 -0.460924
vn -0.625471 -0.174936 -0.760384
vn -0.907595 0.364894 0.207664
vn -0.943976 0.0253165 -0.329042
vn -0.903779 0.0786209 -0.420716
vn 0.683552 0.305623 0.662836
vn -0.946153 -0.124703 0.298737
vn -0.423708 0.463556 0.778195
vn 0.499111 -0.388091 -0.774773
vn -0.144321 -0.978586 0.14677
vn 0.166429 0.130551 0.977373
vn -0.715898 -0.150522 -0.681787
vn 0.124883 -0.495466 -0.859603
vn -0.857286 -0.469279 0.211747
vn 0.314124 0.570671 0.758723
vn 0.422956 -0.403102 0.811552
vn -0.994005 -0.0146918 0.108346
vn 0.878281 0.338815 0.337384
vn -0.43582 -0.589787 -0.679862
vn -0.62044 0.442566 0.647449
vn 0.521259 -0.624643 0.581473
vn -0.531724 -0.845843 0.0426446
vn 0.694447 0.71891 -0.0301913
vn -0.751698 0.658117 0.0428002
vn 0.899656 0.372572 0.227616
vn 0.862481 -0.318088 -0.393633
vn 0.088394 -0.168828 -0.981674
vn -0.807544 0.498667 0.314968
vn -0.345486 0.412575 0.842865
vn 0.837614 0.350002 0.419407
vn -0.7603 -0.063646 0.646447
vn 0.100893 -0.532033 -0.840691
vn 0.191096 0.580736 0.791345
vn -0.271816 0.0203565 -0.962134
vn -0.987461 -0.127911 0.0925175
vn -0.483187 0.356706 0.799557
vn 0.464337 0.331605 -0.821236
vn -0.983405 0.101127 -0.150626
vn 0.348705 -0.920795 -0.17476
vn 0.866261 -0.314236 -0.388393
vn -0.459297 -0.497486 0.735903
vn 0.786508 -0.583865 -0.201262
vn 0.353037 0.72298 -0.593856
vn 0.205458 -0.972295 0.111492
vn 0.793674 0.0711021 0.604174
vn -0.446645 -0.560262 0.697578
vn -0.252902 -0.933166 -0.255426
vn -0.655662 -0.629071 0.417586
vn -0.966405 -0.256664 0.0135814
vn 0.605198 -0.754473 -0.253978
vn 0.836712 0.299585 0.458434
vn 0.804223 -0.444884 -0.394086
vn 0.0428192 -0.87503 -0.482171
vn -0.963295 0.0630379 0.260939
vn -0.233429 0.557479 0.796698
vn 0.605359 -0.158792 -0.779953
vn -0.764814 0.0555883 0.641849
vn -0.229273 0.56159 0.795016
vn 0.984553 -0.0910233 0.149565
vn 0.591278 -0.496108 0.63582
vn 0.365956 0.599637 0.711697
vn -0.925984 -0.111433 -0.360745
vn -0.00611223 -0.543151 -0.839613
vn -0.909542 -0.327605 -0.255751
vn -0.489043 0.59089 0.641628
vn -0.910073 -0.33376 -0.245706
vn 0.750829 0.0485951 0.658707
vn -0.356997 0.551461 0.753953
vn -0.175619 -0.779927 -0.600726
vn -0.46152 -0.100877 -0.881376
vn -0.735055 0.0428873 0.67665
vn -0.505128 -0.654183 0.56293
vn 0.62841 -0.0499988 -0.776274
vn 0.646557 -0.476053 -0.596102
vn 0.991511 0.115289 0.0601262
vn -0.619204 0.374999 0.6899
vn -0.174172 0.158333 -0.971903
vn 0.965573 -0.183788 0.184095
vn 0.845002 -0.244981 -0.475349
vn -0.925074 0.26361 0.273402
vn -0.0512535 0.523189 0.850674
vn -0.588914 0.133889 -0.797028
vn 0.791414 -0.29297 -0.536501
vn 0.100928 -0.885407 -0.453728
vn -0.471306 0.851224 -0.230842
vn -0.592069 -0.805156 0.034309
vn -0.965998 0.199976 -0.163881
vn -0.320514 -0.472719 -0.820858
vn -0.220906 0.438653 -0.871082
vn -0.406261 0.350013 0.844063
vn 0.646096 0.361445 0.672249
vn -0.719631 0.0780107 -0.689961
vn 0.741872 0.244332 0.624442
vn -0.0248548 0.40581 0.91362
vn -0.639939 -0.133385 0.75676
vn -0.881442 0.13632 -0.452191
vn 0.913406 0.169109 -0.370258
vn 0.975235 0.11925 -0.186268
vn 0.170118 -0.361922 -0.916555
vn 0.294539 0.547021 0.783591
vn 0.484611 -0.86273 -0.144393
vn -0.068666 -0.35963 0.930565
vn 0.363863 0.598934 0.713359
vn 0.136141 -0.132647 -0.981769
vn 0.775186 -0.629601 -0.0518591
vn 0.741523 -0.660896 -0.115585
vn 0.573764 0.498473 0.649861
vn -0.395344 0.218851 0.89208
vn 0.759764 -0.607058 -0.232891
vn 0.974564 0.173855 -0.141419
vn 0.961552 0.0387918 -0.271868
vn -0.586405 0.676286 0.445833
vn -0.39748 0.350095 0.8482
vn -0.666191 -0.644509 -0.375229
vn 0.818972 -0.277645 0.502193
vn -0.0963116 -0.0995578 -0.99036
vn 0.991151 -0.0310712 -0.12905
vn 0.992947 0.0855611 0.0820763
vn 0.632129 0.529892 0.565357
vn 0.833111 0.332561 0.441961
vn 0.101565 -0.839563 -0.533683
vn -0.640654 -0.697296 0.321467
vn 0.0611725 -0.930112 -0.362147
vn -0.48864 -0.819309 -0.299941
vn -0.642085 0.406877 0.649752
vn -0.270965 0.433317 -0.859543
vn -0.876414 0.354144 0.326312
vn 0.336111 0.421561 0.842209
vn -0.0398081 0.487193 -0.872387
vn -0.816088 -0.386384 -0.429777
vn 0.96453 0.0549428 0.258194
vn -0.716892 0.446851 0.535155
vn -0.886034 -0.415885 0.204898
vn -0.620338 -0.670783 0.406487
vn 0.893603 -0.439426 0.0915346
vn -0.899835 0.075082 -0.429721
vn 0.757863 -0.604481 0.245453
vn -0.714102 -0.285284 0.639274
vn -0.275463 0.335046 -0.901035
vn 0.235269 0.421888 0.875591
vn -0.804281 -0.593311 0.0333919
vn 0.9698 0.173728 -0.171193
vn -0.593996 0.0133535 0.804357
vn 0.397704 -0.49028 -0.775537
vn 0.0973418 0.00423396 -0.995242
vn 0.864551 0.15961 -0.476525
vn 0.474636 0.5133 0.715013
vn -0.406151 0.552284 0.728028
vn -0.228442 -0.957434 -0.176449
vn -0.427019 -0.131409 -0.894643
vn -0.514813 0.00371701 -0.857294
vn 0.4457 0.44858 0.774679
vn 0.801104 0.157309 -0.577483
vn -0.0695055 0.541309 0.837946
vn -0.661794 -0.647941 -0.377096
vn 0.831689 0.361306 0.421607
vn -0.837297 -0.361802 -0.409917
vn -0.0420398 0.552958 0.832148
vn 0.918378 -0.00402454 0.395683
vn -0.99906 -0.0194475 -0.038737
vn 0.955595 -0.210713 -0.206006
vn -0.363332 0.562556 0.742644
vn -0.689661 0.46489 0.555198
vn -0.995663 0.0839088 -0.0401872
vn -0.958076 0.0154017 0.286099
vn 0.696924 -0.0683847 0.713877
vn 0.174009 0.418723 0.891287
vn -0.393897 -0.570978 0.720298
vn 0.148362 0.53145 0.833996
vn 0.0251941 0.0491647 -0.998473
vn -0.436126 0.259735 0.861587
vn -0.724924 -0.655393 -0.212003
vn 0.666425 0.482294 0.568569
vn -0.0740834 -0.5691 0.818924
vn -0.561637 -0.43268 -0.705231
vn 0.550797 -0.261209 0.792713
vn -0.503154 0.415422 0.7578
vn -0.148448 0.477895 0.865783
vn 0.242874 -0.396132 0.88549
vn -0.510967 0.330328 0.793597
vn 0.183208 -0.0130156 -0.982988
vn -0.406896 -0.360569 0.839301
vn 0.31493 0.542231 0.778977
vn -0.0235102 0.696292 0.717373
vn -0.0306074 0.264212 -0.963979
vn 0.953732 -0.275354 -0.120729
vn -0.915402 0.21467 0.340523
vn -0.394789 0.745169 0.537462
vn 0.159611 -0.0653592 -0.985014
vn 0.127252 -0.0701158 -0.989389
vn 0.391403 -0.807995 0.440395
vn 0.197034 0.0385584 -0.979638
vn 0.257069 0.191995 -0.947129
vn -0.154188 -0.470677 0.868728
vn 0.398012 0.0192616 -0.917178
vn -0.109107 -0.0462846 -0.992952
vn -0.979093 0.197682 -0.0479461
vn -0.541882 0.504769 0.671992
vn 0.442934 -0.595167 0.670511
vn -0.328921 -0.200378 -0.922854
vn 0.583053 0.369621 0.723485
vn 0.537472 -0.573286 -0.61844
vn 0.835067 -0.468877 -0.287779
vn -0.871666 0.125912 0.473649
vn 0.969144 0.245567 -0.0213572
vn 0.294122 -0.899807 0.322242
vn 0.0103411 0.00516983 -0.999933
vn -0.930166 -0.0695595 0.360488
vn 0.0181465 -0.00396039 -0.999828
vn -0.098992 -0.0450139 -0.99407
vn -0.312398 -0.643241 0.699034
vn 0.0200617 -0.00752154 -0.99977

# Mesh '<STL_BINARY>' with 324 faces
g <STL_BINARY>
usemtl DefaultMaterial
f  1//1 2//1 3//1
f  4//2 5//2 6//2
f  7//3 8//3 9//3
f  10//4 11//4 12//4
f  13//5 4//5 14//5
f  14//6 4//6 6//6
f  15//7 16//7 17//7
f  18//8 19//8 20//8
f  21//9 22//9 12//9
f  23//10 24//10 25//10
f  26//11 27//11 21//11
f  28//12 23//12 25//12
f  19//13 29//13 30//13
f  31//14 32//14 33//14
f  34//15 35//15 36//15
f  37//16 38//16 39//16
f  40//17 41//17 1//17
f  42//18 43//18 44//18
f  36//19 45//19 46//19
f  47//20 22//20 48//20
f  30//21 49//21 50//21
f  51//22 52//22 53//22
f  22//23 54//23 55//23
f  56//24 57//24 28//24
f  58//25 59//25 24//25
f  9//26 60//26 7//26
f  61//27 62//27 63//27
f  64//28 47//28 38//28
f  21//29 27//29 65//29
f  66//30 67//30 68//30
f  69//31 70//31 63//31
f  71//32 72//32 27//32
f  73//33 74//33 75//33
f  76//34 77//34 35//34
f  50//35 78//35 79//35
f  80//36 81//36 82//36
f  35//37 34//37 83//37
f  73//38 84//38 74//38
f  52//39 51//39 85//39
f  86//40 87//40 88//40
f  89//41 68//41 90//41
f  81//42 91//42 92//42
f  93//43 16//43 15//43
f  18//44 29//44 19//44
f  43//45 89//45 3//45
f  27//46 72//46 94//46
f  12//47 95//47 64//47
f  96//48 97//48 8//48
f  98//49 60//49 99//49
f  41//50 100//50 101//50
f  100//51 102//51 92//51
f  7//52 103//52 94//52
f  104//53 58//53 23//53
f  75//54 74//54 105//54
f  32//55 18//55 56//55
f  21//56 12//56 26//56
f  106//57 61//57 107//57
f  24//58 108//58 109//58
f  15//59 108//59 93//59
f  110//60 111//60 112//60
f  113//61 72//61 71//61
f  108//62 59//62 6//62
f  114//63 115//63 116//63
f  117//64 118//64 119//64
f  10//65 111//65 110//65
f  39//66 48//66 37//66
f  120//67 109//67 121//67
f  122//68 36//68 77//68
f  2//69 26//69 44//69
f  87//70 96//70 119//70
f  67//71 77//71 68//71
f  41//72 102//72 100//72
f  123//73 124//73 78//73
f  65//74 27//74 125//74
f  59//75 58//75 126//75
f  127//76 33//76 28//76
f  2//77 128//77 129//77
f  105//78 113//78 100//78
f  130//79 131//79 132//79
f  87//80 119//80 88//80
f  88//81 34//81 86//81
f  78//82 133//82 134//82
f  102//83 81//83 92//83
f  44//84 135//84 52//84
f  45//85 136//85 137//85
f  111//86 12//86 47//86
f  68//87 138//87 90//87
f  139//88 108//88 6//88
f  140//89 66//89 141//89
f  102//90 41//90 142//90
f  143//91 76//91 62//91
f  144//92 4//92 139//92
f  145//93 64//93 95//93
f  35//94 83//94 115//94
f  132//95 131//95 13//95
f  103//96 125//96 94//96
f  35//97 115//97 76//97
f  20//98 57//98 18//98
f  95//99 11//99 145//99
f  146//100 126//100 58//100
f  51//101 127//101 28//101
f  62//102 116//102 63//102
f  79//103 134//103 104//103
f  6//104 44//104 52//104
f  85//105 51//105 25//105
f  108//106 15//106 147//106
f  148//107 149//107 76//107
f  150//108 89//108 43//108
f  85//109 14//109 52//109
f  138//110 80//110 82//110
f  136//111 146//111 58//111
f  76//112 149//112 77//112
f  26//113 129//113 27//113
f  151//114 80//114 152//114
f  153//115 7//115 154//115
f  99//116 31//116 98//116
f  109//117 14//117 85//117
f  34//118 46//118 155//118
f  14//119 120//119 130//119
f  97//120 156//120 8//120
f  59//121 157//121 42//121
f  14//122 6//122 52//122
f  114//123 116//123 62//123
f  127//124 60//124 98//124
f  42//125 44//125 6//125
f  158//126 80//126 151//126
f  87//127 86//127 159//127
f  10//128 112//128 11//128
f  160//129 113//129 105//129
f  136//130 133//130 137//130
f  1//131 128//131 2//131
f  156//132 9//132 8//132
f  143//133 161//133 148//133
f  142//134 82//134 102//134
f  29//135 18//135 32//135
f  21//136 48//136 22//136
f  136//137 134//137 133//137
f  146//138 141//138 126//138
f  28//139 33//139 56//139
f  153//140 8//140 7//140
f  108//141 147//141 109//141
f  78//142 134//142 79//142
f  91//143 81//143 162//143
f  43//144 3//144 44//144
f  87//145 124//145 97//145
f  51//146 65//146 127//146
f  100//147 92//147 105//147
f  9//148 49//148 99//148
f  24//149 85//149 25//149
f  160//150 154//150 94//150
f  135//151 12//151 64//151
f  126//152 141//152 157//152
f  11//153 95//153 12//153
f  150//154 141//154 66//154
f  85//155 24//155 109//155
f  12//156 135//156 26//156
f  14//157 132//157 13//157
f  106//158 158//158 61//158
f  90//159 142//159 40//159
f  151//160 163//160 161//160
f  106//161 107//161 80//161
f  150//162 66//162 89//162
f  6//163 5//163 139//163
f  141//164 150//164 157//164
f  138//165 68//165 152//165
f  162//166 81//166 70//166
f  116//167 69//167 63//167
f  56//168 18//168 57//168
f  91//169 162//169 75//169
f  118//170 69//170 116//170
f  36//171 122//171 140//171
f  143//172 148//172 76//172
f  83//173 118//173 115//173
f  71//174 27//174 129//174
f  3//175 2//175 44//175
f  113//176 71//176 101//176
f  96//177 153//177 84//177
f  101//178 100//178 113//178
f  34//179 36//179 46//179
f  96//180 73//180 119//180
f  40//181 1//181 3//181
f  33//182 98//182 31//182
f  107//183 63//183 70//183
f  17//184 16//184 93//184
f  104//185 28//185 57//185
f  59//186 42//186 6//186
f  136//187 45//187 146//187
f  156//188 49//188 9//188
f  22//189 47//189 54//189
f  45//190 36//190 140//190
f  126//191 157//191 59//191
f  160//192 74//192 154//192
f  87//193 97//193 96//193
f  127//194 65//194 103//194
f  149//195 163//195 164//195
f  68//196 164//196 152//196
f  37//197 21//197 53//197
f  138//198 82//198 142//198
f  7//199 94//199 154//199
f  44//200 26//200 135//200
f  53//201 65//201 51//201
f  75//202 162//202 117//202
f  20//203 50//203 79//203
f  65//204 125//204 103//204
f  19//205 50//205 20//205
f  50//206 49//206 156//206
f  61//207 63//207 107//207
f  125//208 27//208 94//208
f  104//209 134//209 58//209
f  24//210 59//210 108//210
f  151//211 152//211 164//211
f  124//212 87//212 159//212
f  66//213 68//213 89//213
f  61//214 143//214 62//214
f  116//215 115//215 118//215
f  56//216 33//216 32//216
f  140//217 122//217 67//217
f  140//218 67//218 66//218
f  133//219 78//219 124//219
f  14//220 109//220 120//220
f  77//221 149//221 68//221
f  136//222 58//222 134//222
f  79//223 57//223 20//223
f  118//224 162//224 69//224
f  118//225 117//225 162//225
f  41//226 128//226 1//226
f  35//227 77//227 36//227
f  163//228 151//228 164//228
f  135//229 37//229 53//229
f  64//230 37//230 135//230
f  133//231 124//231 159//231
f  155//232 46//232 137//232
f  89//233 40//233 3//233
f  82//234 81//234 102//234
f  89//235 90//235 40//235
f  41//236 40//236 142//236
f  31//237 99//237 30//237
f  32//238 31//238 29//238
f  74//239 153//239 154//239
f  34//240 88//240 118//240
f  53//241 21//241 65//241
f  129//242 128//242 101//242
f  45//243 137//243 46//243
f  84//244 153//244 74//244
f  107//245 81//245 80//245
f  151//246 161//246 158//246
f  148//247 163//247 149//247
f  103//248 7//248 60//248
f  122//249 77//249 67//249
f  130//250 132//250 14//250
f  121//251 147//251 120//251
f  123//252 78//252 50//252
f  158//253 106//253 80//253
f  79//254 104//254 57//254
f  10//255 12//255 111//255
f  157//256 43//256 42//256
f  52//257 135//257 53//257
f  24//258 23//258 58//258
f  86//259 155//259 159//259
f  96//260 84//260 73//260
f  138//261 142//261 90//261
f  127//262 98//262 33//262
f  60//263 127//263 103//263
f  34//264 155//264 86//264
f  104//265 23//265 28//265
f  119//266 118//266 88//266
f  128//267 41//267 101//267
f  133//268 155//268 137//268
f  129//269 101//269 71//269
f  123//270 156//270 97//270
f  114//271 76//271 115//271
f  72//272 113//272 160//272
f  45//273 140//273 141//273
f  119//274 73//274 117//274
f  69//275 162//275 70//275
f  60//276 9//276 99//276
f  107//277 70//277 81//277
f  38//278 37//278 64//278
f  30//279 50//279 19//279
f  158//280 143//280 61//280
f  124//281 123//281 97//281
f  145//282 11//282 64//282
f  12//283 22//283 55//283
f  138//284 152//284 80//284
f  159//285 155//285 133//285
f  17//286 93//286 139//286
f  2//287 129//287 26//287
f  76//288 114//288 62//288
f  73//289 75//289 117//289
f  50//290 156//290 123//290
f  10//291 110//291 112//291
f  30//292 99//292 49//292
f  64//293 11//293 47//293
f  4//294 144//294 5//294
f  118//295 83//295 34//295
f  48//296 21//296 37//296
f  38//297 48//297 39//297
f  45//298 141//298 146//298
f  74//299 160//299 105//299
f  29//300 31//300 30//300
f  112//301 47//301 11//301
f  112//302 111//302 47//302
f  55//303 54//303 47//303
f  147//304 139//304 4//304
f  17//305 147//305 15//305
f  139//306 93//306 108//306
f  25//307 51//307 28//307
f  4//308 13//308 147//308
f  160//309 94//309 72//309
f  8//310 153//310 96//310
f  148//311 161//311 163//311
f  17//312 139//312 147//312
f  147//313 121//313 109//313
f  157//314 150//314 43//314
f  149//315 164//315 68//315
f  91//316 75//316 105//316
f  5//317 144//317 139//317
f  47//318 12//318 55//318
f  47//319 48//319 38//319
f  92//320 91//320 105//320
f  13//321 130//321 120//321
f  147//322 13//322 120//322
f  143//323 158//323 161//323
f  131//324 130//324 13//324

